<?xml version="1.0" encoding="UTF-8"?>
<svg id="Layer_1" data-name="Layer 1" xmlns="http://www.w3.org/2000/svg" xmlns:xlink="http://www.w3.org/1999/xlink" viewBox="0 0 80 60">
  <defs>
    <style>
      .cls-1 {
        fill: #231f20;
      }

      .cls-2 {
        fill: url(#New_Gradient_Swatch);
      }

      .cls-3 {
        fill: url(#New_Gradient_Swatch-2);
      }
    </style>
    <linearGradient id="New_Gradient_Swatch" data-name="New Gradient Swatch" x1="23.85" y1="33.09" x2="32.87" y2="33.09" gradientUnits="userSpaceOnUse">
      <stop offset="0" stop-color="#7264ac"/>
      <stop offset="1" stop-color="#a37bb7"/>
    </linearGradient>
    <linearGradient id="New_Gradient_Swatch-2" data-name="New Gradient Swatch" x1="51.41" y1="38.02" x2="57.64" y2="38.02" xlink:href="#New_Gradient_Swatch"/>
  </defs>
  <path class="cls-1" d="M40.52,19.82h2.66v20.11h-2.66v-20.11Z"/>
  <path class="cls-1" d="M50.01,40.16c-3.32-.43-5.95-3.04-5.95-6.76,0-4.08,3.09-6.81,7.17-6.81,3.77,0,6.1,1.8,6.1,4,0,2.56-3.17,3.06-4.53,3.06h-4.31c1.17-.18,5.9-.71,5.9-3.9,0-1.9-1.32-2.71-2.81-2.71-2.46,0-4.58,2.28-4.58,6.36,0,3.44,1.32,6.03,3.01,6.76Z"/>
  <path class="cls-1" d="M58.52,26.89h2.66v13.04h-2.66v-13.04ZM69.9,31.12v8.81h-2.66v-8.81c0-2.79-.76-3.39-2.23-3.39-.84,0-1.77.38-3.32,1.37,1.44-1.27,2.91-2.51,4.96-2.51,2.38,0,3.24,1.52,3.24,4.53ZM78.58,31.12v8.81h-2.63v-8.81c0-2.79-.76-3.39-2.25-3.39-.81,0-1.75.38-3.29,1.37,1.44-1.27,2.91-2.51,4.96-2.51,2.38,0,3.22,1.52,3.22,4.53Z"/>
  <g>
    <path class="cls-1" d="M15.87,26.58h-2.74l3.32,13.35h2.73l-3.31-13.35ZM20.53,26.58h-2.73l2.4,9.78-.81,3.21,1.01-2.45.71,2.81h2.73l-3.32-13.35ZM39.23,39.02c-.3,0-.51-.28-.51-.86v-7.02c0-3.01-1.97-4.64-5.39-4.53,1.09.13,1.7.64,1.7,1.49,0,2.74-7.8,4.05-7.8,8.23,0,3.37,2.96,3.85,4.16,3.85,2.38,0,3.9-2.03,4.23-3.26-.79,1.16-1.49,1.75-2.94,1.75-1.75,0-2.56-1.32-2.56-2.56,0-3.29,5.34-4.96,5.19-8.23.51.71.79,1.77.79,3.26v6.46c0,.76-.02,2.58,1.77,2.58.96,0,1.72-.71,1.77-1.49-.08.15-.2.33-.41.33Z"/>
    <path class="cls-2" d="M23.85,39.58c1.57-9.37,5.45-12.97,7.73-12.97.71,0,1.29.58,1.29,1.29,0,2.2-6.46,1.98-9.02,11.68Z"/>
  </g>
  <g>
    <polygon class="cls-1" points="14.57 39.93 11.84 39.93 10.1 33.14 9.99 32.71 8.52 26.91 8.53 26.91 7.62 23.34 10.36 23.34 13.79 36.85 14.57 39.93"/>
    <polygon class="cls-1" points="10.4 33.14 5.47 33.14 3.88 39.93 1.42 39.93 7.57 24.3 5.57 32.71 10.29 32.71 10.4 33.14"/>
  </g>
  <path class="cls-3" d="M51.41,40.16c3.37-.68,3.29-4.28,5.07-4.28.71,0,1.16.46,1.16,1.17,0,.96-2.18,3.12-6.23,3.12Z"/>
</svg>