<?xml version="1.0" encoding="UTF-8"?>
<svg id="Layer_1" data-name="Layer 1" xmlns="http://www.w3.org/2000/svg" viewBox="0 0 1080 1920">
  <defs>
    <style>
      .cls-1 {
        fill: none;
      }

      .cls-2 {
        font-family: Tajawal-Bold, Tajawal;
        font-size: 60px;
        font-weight: 700;
      }

      .cls-2, .cls-3 {
        fill: #6a4c9c;
      }

      .cls-4 {
        font-family: Tajawal-Medium, Tajawal;
        font-size: 54px;
        font-weight: 500;
      }

      .cls-4, .cls-5 {
        fill: #9982bb;
      }

      .cls-6 {
        fill: #fff;
      }

      .cls-7 {
        fill: #e6e2ed;
      }

      .cls-8 {
        fill: #118040;
      }
    </style>
  </defs>
  <rect class="cls-6" y="420" width="1080" height="1080"/>
  <g>
    <g>
      <path class="cls-5" d="M482.01,608.64c-18.25,29.41-65.06,59.77-93.61,62.31,11.64-29.91,60.39-54.84,93.61-62.31Z"/>
      <path class="cls-5" d="M458.54,949.34l-46.91-35.73c9.03,1.54,16.39-3.46,25.44-1.85,7.56,1.35,17.51,1.41,24.89,3.53,7.49,16.61,10.79,43.12,18.6,59.52.62,1.31.68,3.3,2.55,3.58,1.24-3.96,2.43-8.93,2.99-13.01,1.9-13.84.42-38.06.4-52.11,0-5.46.12-17.45,8.64-14.64,1.56.51,7.21,2.46,8.9,3.32,24.22,12.33,34.37,34.12,47.41,57.82,8.14,14.8,22.25,42.77,20.89,59.26-.28,3.41-3.34,19.86-4.56,22.24-2.06,4.02-63.2,55.63-68.88,57.28-39.55,11.45-63.52,3.51-100.99-15.58-29.96-15.26-46.93-78.51-65.58-104.57l31.28,221.18c-3.39-5.78-9.11-10.1-13.39-15.1-57.53-67.27-119.73-215.25-21.6-274,3.25-1.95,21.02-11.13,23.46-11.17,3.04-.04,4.08,4.23,6,5.85,3.54,2.98,9.62,6.93,13.64,9.82,25.78,18.53,54.84,31.39,86.82,34.38Z"/>
      <path class="cls-7" d="M461.9,859.98c.59,2.77-3.48,3.56-5.29,4.2-3.86,1.37-9.43,2.86-13.45,3.31-7.34.83-21.04-1.16-26.77,1.16-6.38,2.58-10.51,15.34-6.99,21.5-4.73-2.52-29.07-19.46-30.01-23.14,5.59-14.11,11.17-28.35,11.03-43.89,14.25,14.68,30.66,27.94,50.9,33.45,6.27,1.71,13.92,1.7,20.59,3.41Z"/>
      <path class="cls-7" d="M451.84,673.42c.59,2.7-16.64,11.41-18.72,12.67-6.62,4-12.85,7.34-19.19,11.42-.4.26-15.41,9.8-13.14,10.42-5.61,1.86-1.28.68-8.17.12l4.47,5.58c-2.23,41.27,11.84,82.86,43.55,110.05,4.03,3.45,8.72,6.24,12.96,9.44,1.34,1.01,3.24,1.01,2.69,3.39-22.42-2.26-51.38-27.23-63.46-45.46-13.88-20.93-21.42-51.86-20.37-76.92.15-3.54,1.1-6.9,1.32-10.41,6.86-1.93,14.24-4.82,20.71-7.77,18.16-8.29,35.43-23.15,57.34-22.54Z"/>
      <path class="cls-7" d="M389.29,550.54c-9.99,17.91-21.85,35.26-25.68,55.86,17.19-17.3,37.48-32.23,60.83-40.25,5.11-1.76,11.96-3.57,17.35-3.88-.33.02-1,.71-1.28.9-.5.36-1,.71-1.49,1.07-.95.69-1.88,1.39-2.81,2.09-1.84,1.4-3.65,2.83-5.43,4.3-3.5,2.88-6.88,5.91-10.13,9.07-6.4,6.21-12.29,12.94-17.65,20.07-5.46,7.25-10.38,14.89-14.85,22.78-.97,1.7-1.91,3.42-2.84,5.15-.42.77-2.16,6.13-2.43,7.06-.19.65.34-.58,0,0-4.27,7.25-10.25,13.35-14.27,20.76-15.6,28.76-18.17,60.76-12.84,92.73-1.87-1.31-3.29-5.23-4.3-7.41-28.37-61.24-22.67-150.51,37.83-190.31Z"/>
      <path class="cls-7" d="M368.06,808.59c.91,3.92-5.7,18.67-8.04,22.68-11.82,20.23-35.1,29-57.87,28.71,6.85-5.42,14.49-10.38,20.2-17.03,13.2-15.39,23.75-31.73,45.71-34.35Z"/>
      <path class="cls-7" d="M493.97,625.42c-2.85,3.68-5.03,7.97-7.76,11.74-5.63,7.77-8.5,11.59-13.58,16.77-3.24,3.32-6.8,6.29-10.15,9.47-1.77,1.68-3.61,3.3-5.4,4.97-.91.85-1.81,1.71-2.71,2.57-.3.29-3.92,3.75-4.21,3.67-4.54-1.17-7.18-2.15-11.72-2.86,7.83-5.23,16.2-9.73,23.81-15.29,7.63-5.58,23.82-25.9,31.72-31.04Z"/>
      <path class="cls-7" d="M316.67,637.67c-7.06,47.57,1.75,96.53,30.14,135.74-1.55-.23-4.76-1.2-5.92-1.93-3.07-1.93-6.35-5.41-9.11-7.55-6.67-5.17-15.97-11.3-19.57-19.02-15.03-32.16-11.27-71.79,1.41-104.21.68-1.75.3-3.61,3.06-3.03Z"/>
      <path class="cls-3" d="M451.84,673.42c.42,1.92-8.18,6.88-13.93,10.04.18,0,.35.01.53.01,11.07.31,19.83,2.61,29.03,8.94-.42-8.95-6.93-16.75-15.63-18.99ZM382.88,634.73s-.01.02-.01.03c.02-.03.03-.06.04-.07-.01.01-.02.02-.03.03ZM792.1,823.37l-.13-.02-.12-.02-1.52-.21c-.11,5.48-.68,11.45-2.23,16.76l1.25.18.5.07,2.26.32,36.07,5.15.16,2.56-67.97,312.52-194.58-27,67.04-313.91,45.74,7.71c-.02-.9,2.01-16.99,2.23-17.87l-61.29-9.87-30.26,139.56c-6.41-6.33-12.17-13.61-18.97-19.56-19.73-17.28-56.7-33.21-78.25-37.89-1.71-.37-6.83-1.5-7.79-2.3-2.4-1.97-3.61-21.95-1.08-27.69,5.47-8.08,15.14-9.9,22.69-15.52,25.06-18.64,42.09-50.43,50.71-80,1.81-6.24,2.11-13.94,4-19.46,3.79-10.97,11.91-20.78,15.86-34.41,40.03-137.9-112.01-247.81-226.74-155.24-34.03,27.46-83.96,107.11-82.19,151.38,1.81,45.21,32.33,69.7,66.75,91.85.82.51,3.28.92,1.44,2.49-.5.45-10.67,2.19-13.05,3.16-38.71,15.73-41.02,57.51-69.62,82.86,27.57,8.28,56.47,4.21,83.76-2.79-19.11,12.52-41.62,18.97-60.2,32.51-56.36,41.05-50.29,108.93-37.53,170.27,11.35,54.64,33.4,107.34,58.54,156.81,40.94,6.01,85.11,3.03,125.45-6.36,50.86-11.84,98.2-38.28,130.02-80.11,73.7,11.05,147.67,20.77,221.61,30.14l74.92-347.92-57.46-8.13ZM546.24,719.22c-13.35-16.42-40.47-12.48-43,10.05l6.68-5.59c-5.25,26.72,26.87,23.45,21.24-1.11,16,4.17,12.41,15.33,9.51,27.93-8.57,37.19-40.45,90.43-84.35,86.01-22.42-2.26-51.38-27.22-63.46-45.45-13.87-20.93-21.43-51.86-20.38-76.92.16-3.54,1.11-6.89,1.32-10.41,6.86-1.93,14.24-4.81,20.71-7.78,18.02-8.21,21.96-13.01,43.41-12.49.18,0,.35.01.53.01,11.07.31,19.83,2.61,29.03,8.94-.42-8.95-6.93-16.75-15.63-18.99-4.54-1.17-8.86-.96-13.41-1.68,7.83-5.23,16.2-9.72,23.82-15.28,7.63-5.59,35.13-32.08,38.76-41.13,25.22,17.87,43.22,46.02,46.88,77.08-13.54-13.04-31.89-9.29-40.18,7.27,10.82-4.01,20.69-6.31,32.17-3.16,12.39,3.4,8.19,12.62,6.35,22.7ZM443.77,901.83c-11.99-2-23.62-6.04-34.27-11.86-.09-.06-.18-.1-.27-.16-.27-.15-.53-.29-.79-.44-2.06-1.15-4.06-2.38-6.02-3.68-.04-.02-.09-.06-.13-.09-2.96-1.93-5.84-4.01-8.68-6.12-.22-.17-.44-.32-.65-.48-.71-.54-1.43-1.07-2.13-1.61-.19-.15-.39-.29-.61-.45-.01-.01-.02-.01-.03-.02-3.26-2.3-9.63-6.07-10.74-9.74-.02-.06-.04-.12-.06-.18,5.6-14.11,11.18-28.35,11.04-43.89.01.76,2.79,2.92,3.65,3.69.06.06.11.1.15.13.09.09.18.18.27.27.59.57,1.17,1.14,1.77,1.71.68.66,1.37,1.31,2.07,1.94,1.99,1.84,4.03,3.65,6.14,5.41.49.41.98.83,1.49,1.23.54.45,1.09.89,1.65,1.33.46.36.9.7,1.36,1.06,5.57,4.29,11.52,8.13,17.81,11.17.59.3,1.2.58,1.8.85.34.16.68.31,1.02.46.23.11.47.21.7.31,4.65,1.98,9.48,3.52,14.5,4.48,1.94.37,3.89.71,5.83,1.03,3.04.51,6.09.95,9.14,1.32.23.03.46.07.69.09,1.06.13,3.21-.06,4.11.46.98.56.58,1.61.56,2.87-.07,2.67-.03,5.34.07,8.01.2,5.33.69,10.65,1.32,15.94.16,1.34,1.7,15.56,2.1,15.56-8.21,0-16.76.74-24.83-.6ZM388.4,670.95c17.76-29.91,60.4-54.85,93.61-62.31-18.25,29.41-60.4,53.88-93.61,62.31ZM537.87,626.5c13.23,7.38,20.93,21.65,20.67,36.84l-20.67-36.84ZM389.29,550.54c8.14-5.36,16.42-10,25.94-12.6,66.11-18.12,129.85,25.59,146.08,89.68-.54-2.12-4.06-5.04-5.52-6.66-1.89-2.08-3.85-4.08-5.91-5.99-3.99-3.7-8.29-7.06-12.86-10.02-8.86-5.75-18.68-9.98-28.91-12.59-24.72-6.31-51.28-3.35-74.79,6.13-19.38,7.82-36.82,20.25-50.34,36.1,0,0,0,.01-.01.01-.01.02-.03.04-.06.07h0s-.02.03-.03.04c-5.11,6.01-9.65,12.5-13.52,19.43-.27.46-.53.92-.77,1.37-15.61,28.75-18.18,60.76-12.84,92.74-1.88-1.32-3.3-5.24-4.3-7.42-28.37-61.24-22.68-150.51,37.83-190.31ZM322.48,756.76c-3.19-3.09-6.23-6.35-9.08-9.66-.01-.02-.02-.03-.03-.04-.51-.6-1.03-1.22-1.53-1.82-1.17-1.42-2.3-2.84-3.4-4.27-10.4-13.57-17.88-30.43-17.52-47.79.27-12.62,3.61-25.05,8.52-36.62,2.56-6.05,5.57-11.9,8.91-17.55,1.5-2.52,7.74-15.47,10.56-15.84,2.11-.28.57,2,.37,3.15-.71,3.88-2.03,7.47-2.61,11.36-7.06,47.57,1.75,96.53,30.14,135.74-1.55-.22-4.76-1.2-5.92-1.93-.19-.12-.39-.25-.58-.38-6.26-4-12.28-8.94-17.83-14.34ZM302.15,859.98c-2.06-.02-5,.53-6.69-.56,12.67-20.02,23.09-45.83,48.9-51.63,3.9-.88,22.72-3.44,23.7.8.9,3.92-5.7,18.68-8.04,22.68-11.82,20.23-35.1,29-57.87,28.71ZM523.61,1074.91c-43.37,23.83-88.23,27.15-125.7,8.06-29.96-15.26-46.93-78.51-65.58-104.57l31.28,221.18c-3.38-5.78-9.1-10.1-13.38-15.1-57.54-67.27-119.73-215.25-21.6-274,3.26-1.94,21.02-11.13,23.47-11.16,3.03-.04,4.08,4.22,6,5.84,3.53,2.98,9.62,6.93,13.64,9.82,25.78,18.53,54.84,31.39,86.81,34.37l-46.91-35.72c12.04,2.04,23.58,5.86,35.75,7.53,3.27.45,9.61-.07,12.42,1.52,2.3,1.3,3.18,5.57,4.16,8.04,5.75,14.62,9.83,29.89,16.6,44.11.63,1.3.69,3.3,2.56,3.57,1.24-3.97,2.42-8.94,2.98-13.01,2.33-16.95,6.04-34.65,4.96-51.81-.19-2.93-2.9-8.69-.85-11.32.74-.94,1.88-1.2,3.23-1.02.56.08,1.16.22,1.78.44,4.04,1.33,8.99,5.06,10.81,6.09,20.47,11.53,33.12,29.89,44.35,50.06.37.65.73,1.3,1.08,1.95,8.14,14.79,22.24,42.76,20.89,59.25-.28,3.42-3.34,19.86-4.57,22.24-2.06,4.02-38.98,30.79-44.17,33.64Z"/>
      <path class="cls-5" d="M537.87,626.5c13.23,7.38,20.94,21.65,20.67,36.84l-20.67-36.84Z"/>
      <path class="cls-3" d="M411.63,701.35c12.93-4.29,25.23-7.53,36.88,1.66,7.2,5.69,11.14,13.6,10.03,22.91-4.68-4.54-8.33-10.66-14.5-13.4,2.77,28.38-30.93,26.83-25.72-1.12-4.55,2.2-12.5,4.07-18.2,3.12-1.76-.29-3.33-1.28-4.44-2.67l-3.04-3.79c6.89.56,13.39-4.85,18.99-6.71Z"/>
      <path class="cls-3" d="M496.52,791.84c1.78,1.75-9.96,11.05-11.92,12.09-15.99,8.44-33.08-2.52-37.21-18.79,15.06,8.85,32.2,11.86,49.13,6.71Z"/>
      <path class="cls-3" d="M468.6,770.62c5.15.48,18.05-.44,21.3-4.96,3.49-4.85,1.15-16.2,2.71-21.86,2.42,5.4,6.64,13.95,7.16,19.69,1.59,17.47-22.07,16.57-31.18,7.13Z"/>
      <g id="bj5Odl.tif">
        <g>
          <path class="cls-8" d="M792.14,820.86c-.29-11.1-3.33-22.11-9.08-31.62-.13-.21,1.83-3.44,6.41-8.93l-7.75,7.75-27.72,27.72c-6.96,7.27-14.31,14.23-21.4,21.38-4.55,4.59-10.11,13.66-17.45,8.86-5.44-5.7-12.81-11.44-17.77-17.45-6.17-7.48,2.69-16.49,10.3-11.09l11.22,11.23.75.22,15.96-16.08.51-.51,13.49-13.49,22.52-22.52.35-.35c-5.62-5.41-12.24-9.79-19.59-12.76-14.08-5.7-31.6-6.22-45.9-1.13-23.34,8.32-40.94,30.49-42.17,55.44-.57,11.77.74,21.87,5.85,32.65,13.22,27.86,46.8,42.23,76.26,33.55,20.45-6.03,37.3-23.02,42.92-43.62,1.71-6.26,2.47-12.77,2.3-19.26Z"/>
          <path class="cls-8" d="M729.22,886.08h-2.09c.41-.44,1.69-.43,2.09,0Z"/>
          <path class="cls-8" d="M749.62,798.84l-13.49,13.49,13.18-13.27c.1-.08.2-.15.31-.22Z"/>
        </g>
      </g>
      <polyline class="cls-1" points="781.24 767.21 772.49 775.97 772.14 776.32 749.62 798.84 736.12 812.33 735.61 812.85"/>
      <polyline class="cls-1" points="754.01 815.77 781.72 788.06 782.1 787.68 792.1 777.68 807.52 762.27"/>
      <path class="cls-8" d="M747.45,913.16c7.91-.62,13.94,7.09,11.5,14.63-1.07,3.3-7.89,9.74-10.64,12.62-10.35,10.81-21.27,21.14-31.81,31.77-6.76,6.81-15.02,20.3-25.93,13.16-8.09-8.47-19.04-16.99-26.41-25.93-9.16-11.11,4.01-24.51,15.31-16.48l16.66,16.69,1.1.32,44.08-44.36c1.59-1.22,4.14-2.26,6.14-2.41Z"/>
      <path class="cls-8" d="M730.82,1004.77c7.91-.62,13.94,7.09,11.5,14.63-1.07,3.3-7.89,9.74-10.64,12.62-10.35,10.81-21.27,21.14-31.81,31.77-6.76,6.81-15.02,20.3-25.93,13.16-8.09-8.47-19.04-16.99-26.41-25.93-9.16-11.11,4.01-24.51,15.31-16.48l16.66,16.69,1.1.32,44.08-44.36c1.59-1.22,4.14-2.26,6.14-2.41Z"/>
    </g>
    <text transform="translate(176.09 1333.41)"><tspan class="cls-2"><tspan x="0" y="0">Smart Routine </tspan><tspan x="390.38" y="0">الروتين الذكي</tspan></tspan><tspan class="cls-4"><tspan x="159.26" y="66">صانع جداول للعاملات (</tspan></tspan></text>
  </g>
</svg>