<?xml version="1.0" encoding="UTF-8"?>
<svg id="Layer_1" data-name="Layer 1" xmlns="http://www.w3.org/2000/svg" viewBox="0 0 1080 1920">
  <defs>
    <style>
      .cls-1 {
        fill: #d6a5bb;
        font-family: Tajawal-Medium, Tajawal;
        font-size: 54px;
        font-weight: 500;
      }

      .cls-2 {
        fill: #6e2c3a;
        font-family: Tajawal-Bold, Tajawal;
        font-size: 60px;
        font-weight: 700;
      }

      .cls-3 {
        fill: #fff;
      }

      .cls-4 {
        fill: #e2b4c1;
        opacity: .4;
      }

      .cls-5 {
        fill: #d38c9d;
      }

      .cls-6 {
        fill: #fcfbfc;
      }

      .cls-7 {
        fill: #a55166;
      }

      .cls-8 {
        fill: #118040;
      }
    </style>
  </defs>
  <rect class="cls-3" y="420" width="1080" height="1080"/>
  <path class="cls-5" d="M490.87,615.51c12.69,7.62,20.78,20.07,20.62,35.18-7.92-10.92-13.43-23.7-20.62-35.18Z"/>
  <g>
    <g>
      <path class="cls-5" d="M450.14,1003.51c-.95,3.26-6.3,23.85-7.7,24.18-24.87.75-49.42-.23-72.74-9.62-36.55-14.72-52.3-49.62-73.43-79.94,5.68,48.8,62.54,193.64,77.3,240.4l-84.18-42.64c-11.66-28.19-30.36-102.58-34.23-133.01-6.71-52.74-2.35-96.12,49.13-121.59,13.98-6.92,11.37-1.18,21.13,7.08,26.77,22.65,59.83,39.54,95.56,40.71l-44.77-33.21c-.77-.42-1.03-1.52-1.5-1.99,15.18,5.19,31.16,6.22,46.85,8.97,5.38,6.02,25.42,49.56,29.1,51.37,2.01.99,1.44-1.66,1.5-2.49,1.17-16.3.82-41.14-2.31-57.05-.94-4.76-3.13-9.07-3.72-13.87,1.54-1.53,14.43,6.55,16.62,8.02,5.17,3.45,16.57,10.67,15.36,17.36-9.93,32.26-18.56,64.92-27.96,97.33Z"/>
      <path class="cls-6" d="M434.32,1157.93c1.12-12.37,1.1-24.84.86-37.21,8.22,2.37,17.08,1.55,25.6,2.24,14.38,1.16,25.12,4.01,39.92.75,12.64-2.79,24.54-8.24,38.1-8.76,18.35-.7,33.97,10.43,50.96,15.04,3.4.92,21.62,3.37,21.97,5.26.33,5.42-2.3,9.3-7.4,10.78-16.25,4.71-35.1-8.43-49.17-3.46-1.21.43-2.53,1.06-1.36,2.2,16.66,4.47,30.79,8.94,48.46,8.51,13.07-.31,36.85-9.85,47.7-3.91,5.34,2.92,7.53,7.95.76,10.83-17.02,7.25-52.88,15.6-71.4,18.07-15.43,2.06-36.91-8.96-52.68-13.25-10.34-2.81-20.88-5.06-31.41-7.07l-60.92-.04Z"/>
      <path class="cls-6" d="M343.53,545.88c52.64-32.85,126.57-6.91,156.07,45.59,3.55,6.32,8.26,14.89,8.38,21.79-28.75-34.85-75.95-41.04-116.53-23.99-14.06,5.9-28.83,15.98-38.87,27.01-.6.65-1.24,1.03-2.01,2.01-.51.64-1.05,1.09-1.01,2.01-1.63,1.57-3.62,3.27-5.03,5.03-1.76-.64-.19-3.19.24-4.28,10.12-25.29,26.44-46.49,47.03-64.11-18.83,1.52-36.71,12.22-51.19,23.73-4.99,3.97-9.06,8.68-13.68,12.47-1.13.93-1.62,2.44-3.52,2.01,1.95-18.08,12.4-33.38,20.11-49.28Z"/>
      <path class="cls-4" d="M343.53,545.88c-7.71,15.9-18.16,31.2-20.11,49.28,1.89.44,2.38-1.07,3.52-2.01,4.62-3.79,8.69-8.5,13.68-12.47,14.48-11.51,32.36-22.21,51.19-23.73-20.59,17.61-36.91,38.82-47.03,64.11-.44,1.09-2,3.64-.24,4.28-15.47,19.27-26.56,48.22-28.15,72.93-.68,10.6.77,21.13.99,31.67-1.2.12-1.47-1.65-2-2.01-15.69-34.15-21.45-71.61-15.93-108.96,4.6-31.09,17.34-56.39,44.09-73.09ZM322.91,596.17v1.01c.65-.34.65-.67,0-1.01Z"/>
      <path class="cls-4" d="M388.79,654.02c-.3.45-12.25,13.42-12.07,13.55l14.08-1,12.57-.68c-11.63,2.97-38.98,16.78-44.53,27.56-6.64,12.91-2.77,44.49,1.52,58.37,8.62,27.93,26.59,46.83,50.92,61.78,1.31.81,3.22.34,2.65,2.83-23.44-3.28-53.59-25.89-65.38-46.27-11.19-19.35-16.98-52.88-15.12-74.97.74-8.73,2.49-8.68,9.42-12.71,10.73-6.23,34.45-23.77,45.94-28.47Z"/>
      <path class="cls-4" d="M602.02,1123.2l54.31-200.15c3.55,4.04,9.59,7.85,7.81,14.31l-47.73,184.64c-.32,1.07-.62,2.76-1.89,3.08-.61.15-10.78-1.57-12.5-1.87Z"/>
      <path class="cls-4" d="M580.9,1176.51c-.49,3.49,5.54,2,7.29,1.75,16.74-2.37,34.74-7.89,50.52-13.84l-10.87,7.23c-16.85,9.07-36.59,10.41-54.48,16.93-21.64-.85-45.16-13.53-66.89-14.08-3.04-.08-5.59,1.08-8.05,1.01-2.1-.06-4.78-1.07-8.05-1.01-2.34.05-4.7-.09-7.04,0-10.5.41-21.07,2.55-31.18,4.02-5.96.87-12.08,1.59-18.1,2.01.42-5.49.79-11.77,1.01-17.1l60.84-3.01c10.62,1.48,21.26,3.2,31.73,5.49,15.96,3.49,37.96,13.43,53.27,10.6Z"/>
      <path class="cls-4" d="M417.96,837.56c.5,2.33-1.14,2.16-2.62,2.86-16.01,7.46-23.73,3.36-39.14,5.17-9.05,1.06-11.28,13.5-10.54,21.14-10-5.95-19.87-12.26-28.03-20.83,4.47-13.88,11.32-27.48,9.93-42.53.14,0,.52-1.25,1.93-.58,1.7.82,5.55,5.86,7.66,7.59,16.28,13.38,32.15,22.67,53.29,26.17,2.59.43,5.52-1,7.54,1.02Z"/>
      <path class="cls-6" d="M850.45,965.29c.52-2.26,3.42-16.49,4.14-16.98,1.71-1.19,9.17.45,6.83,4.25-16.56,68.71-30.15,138.16-46.64,206.88-.5,2.08-2.66,12.01-3.49,12.59-2.32,1.63-6.63-.25-9.11-.56,1.78-2.12,2.41-4.41,3.02-7.04.53-2.32.45-5.74,1.01-8.05,4.91-20.39,9.4-40.88,14.08-61.35.3-1.33.69-2.66,1.01-4.02,4.14-18.11,8.89-36.2,13.08-54.31.97-4.2,1.16-9.41,2.01-13.08,4.47-19.28,9.58-38.87,14.08-58.34Z"/>
      <path class="cls-6" d="M417.96,837.56c1.76,1.76,2.21,38.46,6.03,44.25h-19.61c-3.1,0-18.99-4.64-22.63-6.03-5.71-2.18-10.9-5.96-16.09-9.05-.74-7.64,1.49-20.08,10.54-21.14,15.41-1.81,23.12,2.3,39.14-5.17,1.48-.69,3.13-.53,2.62-2.86Z"/>
      <path class="cls-4" d="M794.12,1161.42c3.68,1.01,7.32,2.23,11.06,3.02-.61,2.63-1.24,4.92-3.02,7.04-46.35-5.71-92.67-17-139.17-22.26-.7-.23-4.43-6.93-4.65-7.92,46.05-1.21,91.69,7.97,135.78,20.12Z"/>
      <path class="cls-4" d="M280.16,628.35c-4.17,49.18,2.89,75.09,25.14,117.68,1.2,2.29,4.53,7.47,5.03,9.05-2.03.24-3.32-.67-4.96-1.57-11.2-6.13-22.51-17.64-30.24-27.6l-5.91-27.79c-1.69-18.13-.79-36.79,3.57-54.51,1.06-4.3,2.8-13.94,7.37-15.26Z"/>
      <path class="cls-6" d="M461.21,1003.51c.42-1.47,2.1-3.68,2.72-5.83,11.05-38.35,21.4-76.91,32.64-115.21.82-2.1,2.9-1.75,4.86-1.67l-.24,4.28-58.09,208.95c-1.59.29-5.19,2.34-6.03,4.02-.5-.17-1.39.11-2.01,0,.75-2.6,1.23-5.41,2.01-8.05,8.48-28.7,15.91-57.91,24.14-86.5Z"/>
      <path class="cls-4" d="M329.45,788.27c.46,3.32-2.19,11.68-3.53,15.07-6.87,17.33-21.84,28.22-39.72,32.2-6.4,1.42-11.49,2.15-18.1,2.01l16.14-13.53c12.17-15.81,23.2-33.74,45.21-35.75Z"/>
      <path class="cls-6" d="M328.44,786.26c1.14.71.85.88,1.01,2.01-22.01,2.02-33.05,19.94-45.21,35.75l-16.14,13.53c-2.34-.05-4.7.04-7.04,0-.24-.21,1.63-5.29,2.01-6.03.46-.89,2.18-3.57,3.02-5.03,6.26-10.91,16.91-28.76,27.83-35.03,6.73-3.86,28.09-9.19,34.52-5.2Z"/>
      <path class="cls-6" d="M280.16,628.35c-4.57,1.32-6.31,10.96-7.37,15.26-4.35,17.72-5.26,36.38-3.57,54.51l5.91,27.79c-29.15-37.56-18.11-76.2,6.55-112.63-.84,4.99-1.09,10.03-1.52,15.07Z"/>
      <path class="cls-4" d="M443.1,1094.04c6.71-1.21,25.56,3.02,33.38,4.34,16.47,2.77,32.71,6.66,49.1,9.75,1.86,1.5-.37,3.64-.77,4.85-1.6,4.82-20.9-2.76-34.44-4.86-1.85-.29-4.21.3-6.03,0-7.74-1.28-15.53-3.62-23.13-5.03-8.44-1.56-15.93-2.32-24.14-5.03.84-1.69,4.44-3.74,6.03-4.02Z"/>
      <path class="cls-4" d="M511.49,651.49c-7.92-10.92-13.43-23.7-20.62-35.18,12.69,7.62,20.78,20.07,20.62,35.18Z"/>
      <path class="cls-4" d="M412.93,659.53c-6.39-1.84-17.94-1.4-24.14,1.01v-1.01c20.26-10.24,40.74-20.21,56.32-37.21-6.63,11.31-7.3,14.99-18.09,24.66-4.55,4.07-7.28,7.05-14.1,12.56Z"/>
      <path class="cls-4" d="M388.79,659.53v1.01c-3.16,1.22-7.31,3.49-11.06,5.03,2.35-3.54,7.55-4.26,11.06-6.03Z"/>
      <path class="cls-5" d="M432.04,608.24c-11.44,16.91-35.96,32.35-55.07,38.97-4.58,1.59-9.3,2.56-13.84,4.26.62-2.54,2.32-4.46,3.53-7.02,5.19-8.57,9.99-12.03,16.04-17.65,8.59-7.98,22.29-17.4,33.27-22.05,6.44-2.72,13.89-4.56,20.6-6.54-1.01,2.88-2.9,7.61-4.54,10.04Z"/>
      <path class="cls-8" d="M779.03,1110.15c.17,3.05.56,3.27-2.43,2.92-7.52-.88-21.57-6.77-30.57-8.67-19.02-4-42.67-6.99-62.08-6.39-8.7.27-20,3.25-28.09,3.1-2.05-.04-2.96.62-2.54-2.04,41.84-8.98,85.53-1.76,125.71,11.08Z"/>
      <path class="cls-8" d="M783.98,1084.07c.52.78.56,3.7-1.39,2.91-11.75-3.52-23.45-7.4-35.53-9.75-19.13-3.72-42.63-6.39-62.05-5.31-7.42.41-15.92,2.67-23.16,3-4.8.22-2.64-2.12.95-3.09,25.92-6.96,72.28-1.32,98.57,5.18,2.86.71,21.96,6.08,22.62,7.06Z"/>
      <path class="cls-8" d="M780.96,1097.15c.6.9.78,3.13-1.36,2.88-8.22-.98-20.54-6.46-29.72-8.52-18.07-4.05-40.39-6.7-58.89-6.57-9.79.07-21.82,3.1-31.1,3.1-.78,0-5.74.2-3.55-2.04.66-.67,16.16-2.79,18.61-3.02,23.94-2.24,52.37.34,75.94,5.51,3.63.8,29.21,7.35,30.08,8.65Z"/>
      <path class="cls-8" d="M611.06,1064.89l-2.4,2.92c-24.19-14.03-51.5-24.77-78.87-30.78-9.4-2.07-18.91-3.15-28.36-4.83-.81-.14-4.88.01-4-2s8.4-.62,10.42-.39c36.3,4.17,71.34,17.98,103.22,35.09Z"/>
      <path class="cls-8" d="M605.9,1081.09c.49,2.62.52,3.5-2.17,2.68-25.36-14.16-53.58-25.69-82.16-31.5-8.25-1.67-17.46-2.01-25.4-3.79-4.88-1.09-3.51-3.56,1.22-3.29,5.76.33,13.5,1.83,19.32,2.89,31.43,5.75,61.37,17.68,89.19,33Z"/>
      <path class="cls-8" d="M602.01,1096.07l-2.36,2.9c-33.68-19.49-71.42-32.17-110.29-36.11v-3.01c39.77,3.29,77.88,17.3,112.65,36.22Z"/>
      <g>
        <path class="cls-7" d="M858.62,937.01c-1.55-2.39,3.53-11.98,1.72-14.81-.64-1.01-18.97-8.96-21.7-9.98-33.73-12.51-83.09-15.73-118.15-7.98-16.96,3.75-32.66,11.23-47.59,19.83-6.72-4.99-11.66-12.4-18.12-18.09-23.76-20.99-57.31-34.07-87.77-41.98-9.18-2.38-22.65-5.65-31.91-6.31-5.01-.36-18.56-.79-22.9.2-5.05,1.16-5.69,8.5-6.83,12.78-2.92,1.24-14.65-3.84-15.95-2.9-.99.72-2.31,10.85-3.68,11.08-9.91-4.03-19.25-9.19-29.33-12.88-3.43-1.26-18.27-4.86-19.36-5.78-1.66-1.41-3.08-14.22-3.08-17.1.03-18.39,10.33-15.48,23.12-23.22,25.62-15.51,46.81-48.75,52.9-77.86,1.49-7.12,1.32-15.42,3.18-21.96,3.03-10.61,14.22-20.56,17.77-35.54,25.22-106.43-88.54-204.93-190.8-160.62-49.46,21.43-99.87,96.09-104.23,149.23-3.9,47.64,26.13,76.79,64.37,98.55-6.37,2.46-12.96,3.76-19.04,7.12-8.17,4.52-14.21,11.83-19.33,19.45-6.2,9.23-11.86,18.83-16.95,28.72-3.08,5.98-6.01,12.19-10.38,17.37-1.09,1.3-12.2,10.92-10.74,12.32,15.92,3.38,30.47,4.87,46.75,3.01,2.95-.34,6.11-1.63,8.56-2,3.85-.58,7.88-1.46,11.69-1.89,1.1-.12,3.63-.9,3.39.87-20.22,13.68-44.75,22.29-61.37,40.72-57.37,63.62-15.44,191.13,15.11,260.02,9.94,22.4,20.86,42.52,33.19,63.37.61,1.03,1.05,2.43,2.01,4.02,1.35,2.23,3.29,8.13,5.08,9.5,1.81,1.38,9.72,2.22,12.53,2.56,58.72,7.2,132.53-4.89,180.03-36.27,2.89-1.91,10.22-5.65,12.64-8.42,1.44-1.65,2.25-5.01,3.59-5.46,3.7-1.24,12.74-.54,16.84-.02,15.19,1.95,31.61,8.58,46.88,11.46,16.07,3.02,33.65-3.25,49.29-8.06,19.99-6.15,36.63-16.03,53.86-27.69l158.36,25.18,53.37-245.85c-2.42-1.19-16.18-3.4-17.03-4.72ZM677.02,935.19c2.94-4.97,26.12-14.75,32.41-16.87,41.02-13.82,91.82-9.36,131.51,6.73l.28,3.27c-16.14,70.69-34.39,140.98-49.11,211.98-.29,1.38-1.95,2.73-2.01,3.02-51.26-19.62-110.91-26.7-163.94-10.06,3.37-16.94,8.37-33.51,12.62-50.23,12.5-49.1,25.21-98.67,38.23-147.84ZM517.67,867.87c20.79-1.14,41.71,4.1,61.42,10.21,29.7,9.22,56.39,21.25,77.24,44.96,3.55,4.04,9.59,7.85,7.81,14.31l-47.73,184.64c-.32,1.07-.62,2.76-1.89,3.08-.61.15-10.78-1.57-12.5-1.87-11.7-2.04-18.01-7.55-28.49-12.25-36.32-16.28-75.75-25.24-115.35-29l59.49-214.08ZM496.57,882.48c.82-2.1,3.88-1.82,5.85-1.74l-59.32,213.3c6.71-1.21,66.09,11,82.48,14.09-.39,1.76-.77,4.85-.77,4.85,0,0-88.95-15.46-89.58-15.57.75-2.6,50.09-176.64,61.33-214.93ZM502.44,703.78l-9.09-6.97c-2.4-1.84-5.2-3.12-8.18-3.59-11.16-1.77-24.44,3.79-25.96,15.6l7.03-3.01c-2.34,9.65,5.93,21.89,16.05,15.53,5.56-3.49,5.09-8.5,6.11-14.02.19-1.03-.59-2.09,1.45-1.5,2.24.65,8.71,5.51,9.37,7.72.69,2.3-.53,12.67-.92,15.76-4.76,37.55-41.85,93.07-84.36,87.13-23.44-3.28-53.59-25.89-65.38-46.27-11.19-19.35-16.98-52.88-15.12-74.97.74-8.73,2.49-8.68,9.42-12.71,10.73-6.23,21.05-12.22,32.54-16.93,8.12-3.75,8.07-3.25,11.58-5.03,14.73-7.45,31.56-15.84,44.79-25.78,5.95-4.47,11.19-9.87,15.47-15.95.72-1.02,9.33-13.63,9.41-13.57,22.82,18.57,41.11,44.58,44.77,74.41-8.1-7.09-19.15-9.66-29.1-4.47-1.3.68-8.66,6.1-7.09,7.48,10.83-.99,26.64-4.37,35.23,4.5,5.38,5.55.9,9.75,1.97,16.62ZM365.33,867.3c-10.26-5.86-19.78-13.09-27.71-21.4,4.47-13.88,11.32-27.48,9.93-42.53.14,0,.52-1.25,1.93-.58,1.7.82,5.55,5.86,7.66,7.59,16.28,13.38,32.15,22.67,53.29,26.17,2.59.43,5.52-1,7.54,1.02,1.76,1.76,2.21,38.46,6.03,44.25-11.17,0-21.28.42-32.07-2.93-9.06-2.81-18.08-6.73-26.59-11.59ZM366.9,644.63c.27-.34.54-.69.82-1.03,2.25-2.79,4.59-5.52,7-8.18,11.59-12.76,25.25-23.91,41.25-30.68,6.44-2.72,13.89-4.56,20.6-6.54-1.01,2.88-2.9,7.61-4.54,10.04-11.44,16.91-35.96,32.35-55.07,38.97-4.58,1.59-9.3,2.56-13.84,4.26.28-.1,1.58-3.55,1.87-4.05.57-.99,1.21-1.89,1.91-2.78ZM299.44,618.96c4.6-31.09,17.34-56.39,44.09-73.09,52.64-32.85,126.57-6.91,156.07,45.59,3.55,6.32,8.26,14.89,8.38,21.79-28.75-34.85-75.46-39.83-116.53-23.99-17.88,6.9-40.1,28.05-40.88,29.02-.51.64-4.62,5.28-6.03,7.04-15.47,19.27-26.56,48.22-28.15,72.93-.68,10.6.77,21.13.99,31.67-1.2.12-1.47-1.65-2-2.01-15.69-34.15-21.45-71.61-15.93-108.96ZM275.13,725.92c-29.15-37.56-18.11-76.2,6.55-112.63-.84,4.99-1.09,10.03-1.52,15.07-4.17,49.18,2.89,75.09,25.14,117.68,1.2,2.29,4.53,7.47,5.03,9.05-2.03.24-3.32-.67-4.96-1.57-11.2-6.13-22.51-17.64-30.24-27.6ZM286.2,835.55c-6.4,1.42-11.49,2.15-18.1,2.01-2.34-.05-4.7.04-7.04,0-.24-.21,1.63-5.29,2.01-6.03.46-.89,2.18-3.57,3.02-5.03,6.26-10.91,16.91-28.76,27.83-35.03,6.73-3.86,28.09-9.19,34.52-5.2,1.14.71.85.88,1.01,2.01.46,3.32-2.19,11.68-3.53,15.07-6.87,17.33-21.84,28.22-39.72,32.2ZM304.28,881.29c13.98-6.92,11.37-1.18,21.13,7.08,26.77,22.65,59.83,39.54,95.56,40.71l-44.77-33.21c-.77-.42-1.03-1.52-1.5-1.99,15.18,5.19,31.16,6.22,46.85,8.97,5.38,6.02,25.42,49.56,29.1,51.37,2.01.99,1.44-1.66,1.5-2.49,1.17-16.3.82-41.14-2.31-57.05-.94-4.76-3.13-9.07-3.72-13.87,1.54-1.53,14.43,6.55,16.62,8.02,5.17,3.45,16.57,10.67,15.36,17.36-9.93,32.26-18.56,64.92-27.96,97.33-.95,3.26-6.3,23.85-7.7,24.18-24.87.75-49.42-.23-72.74-9.62-36.55-14.72-52.3-49.62-73.43-79.94,5.68,48.8,41.36,175.06,77.3,240.4l-50.65-37.34c-40.57-28.35-61.21-88.33-67.64-137.41-.04-.3-.08-.61-.12-.91-6.71-52.74-2.35-96.12,49.13-121.59ZM651.31,1154.89c-16.64,8.09-52.03,18.22-70.41,21.62-.49,3.49,5.54,2,7.29,1.75,16.74-2.37,34.74-7.89,50.52-13.84l-10.87,7.23c-16.85,9.07-36.59,10.41-54.48,16.93-23.11-.91-44.06-14.05-67.27-13.76-7.6.09-15.21-.62-22.75-.33-10.5.41-21.07,2.55-31.18,4.02-5.96.87-12.08,1.59-18.1,2.01.42-5.49.79-11.77,1.01-17.1.5-12.41-.14-24.86-1-37.21.11,1.57,39.36,1.73,42.95,1.78,10.25.13,20.65-.72,30.28-4.51,9.44-3.72,19.78-7.31,29.98-8.21,18.29-1.62,34.45,8.72,51.65,12.48,3.44.75,21.76,2.28,22.21,4.16.6,5.4-1.83,9.4-6.86,11.13-16,5.51-35.48-6.67-49.28-1-1.19.49-2.48,1.19-1.25,2.27,16.86,3.63,31.2,7.38,48.82,6.08,13.04-.97,36.31-11.68,47.45-6.29,5.48,2.65,7.92,7.57,1.3,10.78ZM811.28,1172.04c-2.32,1.63-101.78-17.56-148.29-22.81-.7-.23-4.43-6.93-4.65-7.92,46.05-1.21,91.69,7.97,135.78,20.12,3.68,1.01,7.32,2.23,11.06,3.02.53-2.32,48.68-215.63,49.4-216.13,1.71-1.19,9.17.45,6.83,4.25-16.56,68.71-49.3,218.89-50.13,219.47Z"/>
        <path class="cls-7" d="M404.37,693.75l14.59,8.02c-3.67-20.54-24.79-24.45-41.91-17.27-2.64,1.1-15.51,8.98-16.41,10.75-1.05,2.06,5.68,2.6,6.53,2.59,4.76-.06,8.74-3.4,13.57-3.1-2.02,24.3,27.25,23.14,23.63-.98Z"/>
        <path class="cls-7" d="M376.75,667.57c10.45-.82,21.18-2.23,31.51.31,3.75.92,7.42,2.14,11.05,3.46,1.47.54,4.07,2.17,5.6,2.12,1.65-.06.97-1.68.51-3.04-1.81-5.32-7.23-9.37-12.49-10.89-5.17-1.49-10.96-1.39-16.25-.77-3.96.47-7.73,1.78-11.38,3.33-2.34,1-8.17,2.39-8.55,5.47Z"/>
        <path class="cls-7" d="M413.69,767.9c-4.49-1.67-8.39-4.12-12.82-5.78,5.23,16.49,22.21,29.18,39.9,22.29,1.9-.74,16.82-10.07,14.41-12.24-14.24,2.66-28.02.72-41.48-4.28Z"/>
        <path class="cls-7" d="M450.14,726.92v6.97c0,3.09.86,7.82-.66,10.57-.66,1.19-1.65,2.17-2.7,3.04-1.18.98-2.48,1.86-3.96,2.27-3.01.83-6.7.28-9.81.28-.6,0-5.71.48-6.01,0,4.75,7.79,26.61,10.66,28.95.29,1.43-6.32-1.71-14.71-4.07-20.66q-.43-1.08-1.75-2.77Z"/>
      </g>
      <path class="cls-6" d="M322.91,596.17c.65.34.65.67,0,1.01v-1.01Z"/>
      <path class="cls-6" d="M535.63,991.44l-6.98-2.07c-2.29-3.33,9.32-12.15,6.98,2.07Z"/>
    </g>
    <text transform="translate(172.79 1333.43)"><tspan class="cls-2"><tspan x="0" y="0">قاموس عربي للعاملات (عام)</tspan><tspan x="733.06" y="0"> </tspan></tspan><tspan class="cls-1"><tspan x="646.12" y="66">200</tspan></tspan></text>
  </g>
</svg>