<?xml version="1.0" encoding="UTF-8"?>
<svg id="Layer_1" data-name="Layer 1" xmlns="http://www.w3.org/2000/svg" xmlns:xlink="http://www.w3.org/1999/xlink" viewBox="0 0 1080 1920">
  <defs>
    <style>
      .cls-1 {
        fill: #f0f9f4;
      }

      .cls-2 {
        fill: none;
      }

      .cls-3 {
        fill: #d6a5bb;
        font-family: Tajawal-Medium, Tajawal;
        font-size: 54px;
        font-weight: 500;
      }

      .cls-4 {
        fill: #6e2c3a;
        font-family: Tajawal-Bold, Tajawal;
        font-size: 60px;
        font-weight: 700;
      }

      .cls-5 {
        fill: #db8b9f;
      }

      .cls-6 {
        fill: url(#linear-gradient-3);
      }

      .cls-7 {
        fill: url(#linear-gradient-2);
      }

      .cls-8 {
        fill: #d8eae4;
      }

      .cls-9 {
        fill: #368653;
      }

      .cls-10 {
        fill: url(#linear-gradient);
      }

      .cls-11 {
        fill: #fcfcfd;
      }

      .cls-12 {
        fill: #fdfcfd;
      }

      .cls-13 {
        fill: #dc94a4;
      }

      .cls-14, .cls-15 {
        fill: #e2b4c1;
      }

      .cls-16 {
        fill: #ab5065;
      }

      .cls-17 {
        fill: #f9c835;
      }

      .cls-18 {
        fill: #fff;
      }

      .cls-19 {
        fill: #a64b61;
      }

      .cls-20 {
        fill: #a54b61;
      }

      .cls-15, .cls-21 {
        opacity: .4;
      }

      .cls-22 {
        fill: #fac833;
      }

      .cls-23 {
        fill: #e8b8c6;
      }

      .cls-24 {
        fill: #aa4f65;
      }

      .cls-25 {
        fill: #faca32;
      }

      .cls-26 {
        fill: #db91a2;
      }

      .cls-27 {
        fill: #ab4d63;
      }

      .cls-28 {
        fill: #f9c830;
      }

      .cls-29 {
        fill: #dbeee3;
      }

      .cls-30 {
        fill: #fcfcfc;
      }

      .cls-31 {
        fill: #faca34;
      }

      .cls-32 {
        fill: #dd90a2;
      }

      .cls-33 {
        fill: #aa5267;
      }
    </style>
    <linearGradient id="linear-gradient" x1="776.09" y1="965.17" x2="821.58" y2="929.38" gradientUnits="userSpaceOnUse">
      <stop offset="0" stop-color="#dc94a4"/>
      <stop offset="1" stop-color="#a55166"/>
    </linearGradient>
    <linearGradient id="linear-gradient-2" x1="544.13" y1="1077.62" x2="580.59" y2="952.1" gradientUnits="userSpaceOnUse">
      <stop offset="0" stop-color="#e2b4c1"/>
      <stop offset="1" stop-color="#a55166"/>
    </linearGradient>
    <linearGradient id="linear-gradient-3" x1="704.74" y1="1087.73" x2="738.86" y2="1040.98" xlink:href="#linear-gradient-2"/>
  </defs>
  <rect class="cls-18" y="420" width="1080" height="1080"/>
  <g>
    <path class="cls-10" d="M825.86,956.74c-14.62,4.69-57.04,5.96-70.05-2.03-2.41-1.49-4.46-2.78-1.66-4.96,2.04-1.58,4.72-2.38,7.17-3.06,3.45-.96,6.99-1.58,10.53-2.06,6.65-.89,13.49-1.05,20.2-.5,12.86,1.06,9.63.62,20.72,2.55,3.18.55,11.41,1.61,14.57,2.34,1.6.37,4.9.93,5.54,2.79.03.07.05.15.06.23.39,2.27-5.38,4.16-7.08,4.71Z"/>
    <path class="cls-32" d="M607.34,926.25c-2.27-2.64-3.03-3.29-5.55-4.28-7.16-2.82-13.1,1.75-14.35,8.77,1.27,1.76,2.38,3.18,4.46,4.1,1.3.57,3.11,3.2,9.25,1.77,1.65-.38,8.95,1.97,5.54-7.53.29,0,.67.1.9.34.86.9-.43-2.45-.24-3.17Z"/>
    <path class="cls-7" d="M613.48,1072.86c-15.3.07-31.11.29-46.13-2.98-13.47-2.93-26.84-8.67-38.6-15.75.69-3.88,1.19-7.97,2.14-11.79,3.47-13.92,11.56-30.19,20.09-41.67,9.24-12.43,21.04-22.21,34.47-29.89,3.36-1.92,7.28-3.75,10.91-5.09-.13-.99-1.01-1.31-1.89-1.45-32.74-5.23-67.22,9.65-87.4,34.94-8.86,11.11-13.24,20.1-17.86,33.48-1.59,4.61-1.47,3.96-4.49,15.69-1.89,6.65-2.39,11.28-1.22,11.97,2.44,1.42,15.38,7.68,16.77,8.9,1.27,1.12,4.83.96,5.8,2.45,2.94,4.47,5.03.56,9.18,1.17,12.04,3.42,28.47,7.5,40.92,7.44l1.73-.08c-.09,0-.18.01-.27.02-.53.04-1.03.06-1.46.06l49.11,3.72c.57-1.12,1.26-2.81,1.89-3.69.76-1.06,7.29-6.58,6.29-7.47Z"/>
    <path class="cls-2" d="M873.9,1088.48c.02-.18.04-.36.05-.55l-.05.55Z"/>
    <path class="cls-2" d="M557.91,1080.22l-1.73.08c.49-.03.97-.04,1.46-.06.09,0,.18-.01.27-.02Z"/>
    <path class="cls-13" d="M462.47,889.5c-1.05-.87-15.05-9.48-14.24-7.69,8.24,18.2,12.7,31.16,14.31,51.39,1.06,13.41,1.98,25.51-9.24,10.14-9.52-12.34-19.06-25.45-28.02-38.55-14.08-1.19-28-4.12-41.71-7.39l41.09,30.49c.58,1.66.84,2.42-.87,3.21-4.59,2.12-28.35-4.03-33.57-5.74-28.3-9.26-55.35-25.11-75.49-46.07-69.24,23.36-66.92,94.37-50.77,154.3,12.94,48.02,37.85,98.69,84.18,121.53,1.56-11.77,9.17-25.44,18.62-32.7-23.57-19.5-36.15-50.93-45.74-79.52-11.11-33.14-20.87-67.22-25-102.08-.26-2.73.58-3.15,2.77-3,17.44,29.74,36.62,62.3,70.01,78.51,26.14,12.69,54.08,12.86,82.38,11.79,1.61.08,1.31,1.71.84,3.06,1.13-1.81,2.06-8.07,2.96-10.8,9.45-28.5,28.65-53.51,53.59-70.3l-1.76.63c-12.48-23.94-23.09-43.65-44.34-61.21Z"/>
    <path class="cls-13" d="M508.57,950.09l-1.76.63c-12.48-23.94-23.09-43.66-44.34-61.22-1.05-.87-15.05-9.48-14.24-7.69,8.25,18.2,12.7,31.17,14.31,51.4,1.07,13.41,1.98,25.5-9.24,10.13-9.53-12.34-19.06-25.45-28.02-38.55-14.07-1.19-28-4.12-41.71-7.38l41.09,30.49c.58,1.66.84,2.43-.87,3.21-4.59,2.12-28.35-4.02-33.57-5.73-28.3-9.26-55.35-25.11-75.49-46.07-69.24,23.36-66.92,94.37-50.77,154.3,12.94,48.02,37.85,98.68,84.18,121.53,1.56-11.77,9.17-25.45,18.62-32.7-23.58-19.5-36.16-50.94-45.74-79.52-11.11-33.14-20.87-67.23-25-102.08-.26-2.73.58-3.15,2.77-3,17.44,29.74,36.63,62.3,70.01,78.51,26.14,12.68,54.09,12.86,82.38,11.78,1.61.09,1.31,1.72.84,3.06.42-2.25-1.14-1.44-2.57-1.49-10.76-.36-21.3.74-32.06.03-48.19-3.18-75.95-23.25-102.3-62.14l-17.83-29.41c2.12,23.44,8.01,46.72,14.34,69.36,2.77,9.9,6.01,20.43,9.25,30.19,10.02,30.22,22.71,63.18,47.08,84.61-9.46,9-16.1,21.21-19.34,33.86-27.01-10.94-46.69-34.59-60.86-59.3-25.17-43.87-47.91-127.94-25.34-175.35,9.65-20.28,30.92-37.25,52.32-43.66,1.77.17,7.7,7.21,9.72,8.93,21.98,18.72,50.25,34.19,78.61,40.44,6.93,1.53,14.4,2.99,21.45,2.37l-47.62-35.34c16.18,4.06,32.48,7.44,49.12,9.29,8.05,10.8,15.5,22.12,23.82,32.72,2.59,3.3,5.84,7.91,8.53,10.82.89.96,1.86,2.41,3.35,2.22,0-23.81-3.94-49.01-16.36-69.57,4.94.04,11.31,3.83,15.55,6.77,23.15,16.02,32.73,37.19,45.57,60.84.56,1.04.85,2.23,2.12,2.71Z"/>
    <path class="cls-20" d="M452.02,1071.37c-7.98-8.52,2.05-15.66,9.67-18.6-1.64,8.3.95,12.72,7.51,17.42,20.85,14.92,84.29,19.21,110.4,19.81,7.65.18,15.35-.11,23-.13,1.07-.37,1.85-4.2,2.7-5.86l-49.11-3.72c-12.46.05-28.88-4.02-40.92-7.44-10.75-3.05-22-6.78-31.75-12.52-3.8-2.24-9.32-4.63-9.19-9.39.36-12.5,8.42-33.91,14.77-44.81,43.34-74.36,172.92-74.14,216.65-.24,5.54,3.11,11.95,5.9,17.86,8.93-17.58-43.98-63.71-73.82-110.12-78.88,9.09-11.41,5.76-27.84-8.42-32.87-22.95-8.14-40.54,13.8-25.81,33.62-55.9,6.39-108.24,47.19-117.5,104.44-7.97,3.2-15.17,4.95-20.16,12.39,2.03.82,2.19,3.57,3.31,4.57,1.02.91,2.54-.49,3.39,1.02-1.4,6.59-3.56,6.68-8.92,3.34v4.46c.29,2.19-.12,4.88,1.48,6.7,1.53-4.94,5.25-5.69,11.16-2.23ZM607.53,925.53c-.19.72.24,1.53-5.35,9.02-3.1,4.15-8.98.86-10.28.29-2.08-.92-3.19-2.33-4.46-4.1-14.98-20.8,25.84-27.27,20.09-5.21Z"/>
    <path class="cls-20" d="M556.19,1080.3c.43,0,.92-.02,1.46-.06-.49.02-.97.04-1.46.06Z"/>
    <path class="cls-20" d="M452.01,1071.37c-.09,0-.16,1.04-1.78.74-1.74-.33-4.37-1.97-5.94-1.43-1.35.47-1.05,2.59-1.92,3.34-.48.41-1.45-.45-1.52-.42,1.53-4.94,5.25-5.68,11.16-2.23Z"/>
    <path class="cls-19" d="M869.38,855.91c.44-5.42,2.09-9.85-4.78-9.25-7.08.61-25.92,7.02-33.68,9.47-3.31,1.05-6.79,1.83-9.84,3.56l-9.72,38.27-27-1.56c-4.1-6.72-6.61-12.45-12.79-17.72-34.79-29.7-87.35,5.45-71.6,50.02,6.15,17.42,22.09,26.57,39.66,29.54,1.44,5.49,2.53,33.74,4.2,38.21.22.59,5.32,4.66,6.54,6.11,1.54,1.85,3.58,6.67,5.59,7.06,5.38,1.02,8.99-1.01,15.25,1.86,9.35,4.27,12.42,14.08,11.1,23.74-.29,2.19-2.4,5.54-2.02,7.32.46,2.24,5.57,6.26,5.98,9.32,10.91,1.9,23.6,7.47,31.08,15.79-.49-6.16,7.48-9.53,9.47-2.34,1.43,7.44,2.67,9.38,8.11,2.77l1.77.31c3.67-33.7,7.17-67.46,10.41-101.19,1.37-14.28,3.83-29.05,4.46-43.53.13-2.98.47-8.98-.33-11.57-1.93-6.34-23.99-10.96-30.18-12.25l8.56-32.37,39.76-11.57ZM742.16,913.96c-4.13,5.51-2.45,27.44-2.94,34.64-26.27-3.39-42-31.65-27.1-55,16.78-26.28,58.27-19.51,64.26,11.52l18.65,1.07c4.52.05,8.9.43,13.39.75l-4.17,14.18c-15.65-.17-30.03.86-45.44-2.14-1.3-.25-5.08-1.16-6.93-2.37,5.05-1.22,9.68-1.97,14.87-2.24,14.11-.73,8.64-.31,17.86-.74l-.43-7.46c-11.41-.19-23.32-.13-34.2,3.71-1.6.56-6.99,2.98-7.82,4.08ZM763.57,1005c-3.58-1.07-4.73-7.41-.76-8.63,8.98-2.77,8.85,11.06.76,8.63ZM788.36,1009.29c-7.62,2.41-10.21-8.82-3.97-10.68,7.52-2.25,10.82,8.52,3.97,10.68ZM801.54,1034.72c-1.49,1.41-6.41,1.47-8.03-.14-3.31-3.29-1.72-10.38,4.12-10.14,5.42.24,7.37,7.03,3.91,10.28ZM805.46,987.68c-6.27,8.67-15.97-7-6.17-9.17,5.22-1.15,9.54,4.5,6.17,9.17ZM819.05,1028.07c-8.74,1.92-10.16-9.88-2.64-10.87,6.98-.92,8.56,9.56,2.64,10.87ZM820.63,1002.91c-8.09.84-8.46-11.83-1.31-12.44,7.69-.67,9.13,11.63,1.31,12.44ZM841.2,937.85c-.07,3.54-.34,10.85-.83,14.05-.44,2.83-3.48,6.48-5.91,7.86-16.31,9.3-64.37,8.55-81.1,0-3.19-1.63-4.85-3.31-5.87-7.15-.87-3.34-1.55-25.71-.08-27.08,17.69,4.81,36.01,5.76,54.31,5.22-.2,0-1.05,4.45-1.16,4.9-.38,1.63-.79,3.26-1.12,4.9-.59,2.91-1.27,5.81-2.04,8.68-.35,1.3-.78,2.58-1.02,3.91-.15.79-4.15,17.58-3.51,18.25.36.37,7.33,1.05,8.41.68.95-.32,5.11-17.85,5.37-18.67.61-1.86,1.09-3.79,1.59-5.68.91-3.41,1.75-6.84,2.52-10.29.34-1.54.74-3.08,1.17-4.61.08-.28.51-2.46.91-2.49,9.24-1.23,18.92-1.83,27.57-5.53.79,4.33.87,8.65.79,13.06ZM838.18,914.38c0,1.12-2.25,1.39-3.15,1.68-2.89.92-8.94,2.7-19.17,4.22,1.07-4.06,3.01-11.87,3.01-11.87,0,0,16,5,19.31,5.97Z"/>
    <path class="cls-9" d="M705.74,1005.89l-8.93-4.46c1.8,6.87,3.5,13.69,6.7,20.08l2.17.91c3.05,5.45,7.74,9.66,12.81,13.19l.64,2.26c6,1.12,16.05,4.13,21.58,6.7-.13-.38-.23-.77-.23-1.15.01-3.15,20.85-4.99,21.62-2.91.12.34.17.71.19,1.09,21.63-12.76.21-29.7-15.62-15.63,1.04-7.14-1.44-17.93-10.15-18.58-8-.6-4.65,12.46-4.75,17.09l-8.18-9.67c-5.96-.39-14.31-4.18-17.86-8.93ZM763.04,1027.85c1.13.88.57,2.34-.22,3.14-2.76,2.82-12.96,2.67-16.9,4.66,2.21-4.18,13.04-10.96,17.12-7.8ZM739.33,1030.17c-.34.97-.21,2.27-1.58,2.5l-.74-17.11c5.38,2.85,3.98,9.82,2.32,14.61ZM724.71,1025.99l7.07,9.66c-10.3-2.15-18.99-8.3-22.31-18.6,5.3,2.67,10.77,4.93,15.24,8.93Z"/>
    <path class="cls-9" d="M762.3,1041.61c-2.94-1.1-18.92-.25-21.58,2.97-.13-.38-.23-.76-.23-1.15.01-3.15,20.85-4.99,21.62-2.91.13.34.17.71.19,1.09Z"/>
    <path class="cls-9" d="M719.13,1037.89c-6.62-4.56-11.95-9.03-15.62-16.37l2.17.91c3.05,5.44,7.74,9.66,12.81,13.19l.64,2.27Z"/>
    <path class="cls-9" d="M723.6,1014.82c-5.91-3.03-12.32-5.82-17.86-8.93,3.55,4.75,11.9,8.54,17.86,8.93Z"/>
    <path class="cls-27" d="M654.78,900.98c-4.45,5.67-7.71,5.55-12.82,8.73-.77.48-1.3-.03-.95,1.67,12.21,1.58,25.6-4.34,28.81-16.94,5.6-21.98-20.91-35.9-22.14-56.32-.23-3.8.51-7.12.76-10.82-4.12,1.03-6.36,8.02-7.21,11.75-5.66,24.57,28.78,42.49,13.55,61.92Z"/>
    <path class="cls-16" d="M625.26,886.34c-2.59,3.9-6.45,5.95-10.29,8.31,1.54.51,4.12,3.28,5.44,3.2,3.02-.18,11.88-5.79,13.89-8.42,16.57-21.6-16.86-40.95-14.87-63.98.13-1.5,1.71-5.41,1.48-5.58-1.76-1.28-5.42,4.78-6.08,6.18-10.76,22.7,22.48,42.14,10.43,60.28Z"/>
    <g>
      <path class="cls-19" d="M811.96,1095.05c-.58-.37-.85-.99-.56-2.1-.17.84.02,1.54.56,2.1Z"/>
      <path class="cls-19" d="M444.91,1058.08c-1.12-1-1.28-3.75-3.31-4.57-2.95,4.4-3.4,6.09-3,11.59.07.99.74,1.6.77,1.8v-4.46c5.37,3.35,7.53,3.26,8.93-3.34-.84-1.51-2.36-.11-3.39-1.02Z"/>
    </g>
    <path class="cls-15" d="M390.25,557.23c-17.48,14.4-32.6,33.73-41.79,54.55-1.64,3.7-5.31,10.29-3.59,13.89-14.79,19.25-24.72,43.95-27.44,68.18-1.4,12.5-.16,24.98.64,37.48l-3.61-6.43c-23.62-54.23-29.64-142.02,26.69-178.1-2.45,6.93-6.8,12.91-9.81,19.59-4.32,9.61-7.61,19.73-8.79,30.26,1.16.22,1.72-.11,2.63-.7,5.05-3.28,12.75-13.18,18.59-17.88,13.15-10.57,29.41-19.3,46.48-20.84Z"/>
    <path class="cls-11" d="M818.84,1111.55c-1.73.97-3.46,2-5.21,2.98.9-2.65,2.5-3.58,5.21-2.98Z"/>
    <path class="cls-11" d="M867.2,1084.03c-.58,1.3-2.3,2.1-3.5,2.81-3.35,2.02-6.56,3.54-9.89,5.36l1.11-2.28,8.13-4.55-11.23-.53c-18.39,9.86-36.92,19.51-55.61,28.8-1.71.85-3.51,1.5-5.32,2.15-1.82.65-3.67,1.19-5.54,1.71,22.04-11.27,44.23-22.31,66.03-34.04l15.82.57Z"/>
    <path class="cls-11" d="M840.42,1099.65c-1.45.8-3.02,1.42-4.47,2.23.03-2.45,2.48-3.6,4.47-2.23Z"/>
    <path class="cls-23" d="M544.42,1171.16c-16.63-5.57-33.53-8.87-50.69-9.92-17.69,1.64-35.39,3.24-53.09,4.82-3.14.52-5.3.38-6.49-.43l-2.6,14.04c13.71-.07,27.46-1.87,41.26-5.4,23.92-4.33,48.02-1.76,70.41,7.3,11.37,4.2,22.6,3.44,34.28,1.1,15.93-3.19,33.23-8.62,47.82-15.62-12.72,3.99-25.68,6.94-38.89,8.85-3.05.42-13.44.48-9.41-3.34-.41.42-.83.81-1.31,1.12-4.61,2.99-25.07-1.16-31.29-2.52Z"/>
    <path class="cls-23" d="M633.57,1163.26c-11,8.93-25.23,12.62-38.69,16.37-13.49,3.77-26.11,7.73-40.34,6.12-10.52-1.19-23.15-7.46-34.19-9.71-10.63-2.17-22.86-2.64-33.72-1.98-19.11,1.17-37.64,8.46-56.93,7.43l3.35-18.11c0,1.01.37,1.76,1.1,2.25l-2.6,14.04c13.71-.07,27.46-1.87,41.26-5.4,23.92-4.33,48.01-1.76,70.41,7.3,11.37,4.2,22.6,3.44,34.28,1.1,15.94-3.19,33.23-8.62,47.82-15.62-12.71,3.99-25.68,6.94-38.89,8.85-1.63.23-5.33.35-7.83-.16-.17-.04-.33-.07-.48-.11-.64-.17-1.17-.39-1.52-.66-.13-.11-.23-.21-.32-.33,0,0,.01,0,0-.01-.18-.27-.22-.59-.07-.98.1-.26.3-.55.6-.87.07-.07.15-.15.22-.22-.44,2.04,1,1.47,2.32,1.72,6.86,1.32,13.93-1.66,20.9-1.93l33.32-9.09Z"/>
    <path class="cls-23" d="M433.31,1163.63c-.12-.63.3-1.53.11-2.23l-.24,1.27c-.02.36.03.68.13.96Z"/>
    <path class="cls-23" d="M500,1159.92c-21.96-1.33-44.11,5.91-65.49,4.46-.51-.03-.81-.16-.99-.34.19.28.45.51.8.68l-.17.91c1.19.81,3.35.96,6.49.43,17.7-1.58,35.4-3.18,53.09-4.82,17.16,1.05,34.06,4.35,50.69,9.92,6.21,1.36,26.68,5.51,31.29,2.52.48-.31.9-.71,1.31-1.12-28.34,3.02-49.8-10.99-77.02-12.64Z"/>
    <path class="cls-23" d="M434.15,1165.63l.17-.91c-.35-.17-.61-.4-.8-.68-.11-.12-.18-.25-.21-.41-.1-.28-.14-.6-.13-.96l-.13.71c0,1,.36,1.75,1.1,2.25Z"/>
    <path class="cls-15" d="M418.54,839.22c-14.53,6.6-29.66,5.88-45.2,7.26-6.87,4.56-7.31,13.54-6.89,21.02-1.42-.82-3.67-1.24-5.45-2.37-3.21-2.04-21.27-15.88-21.96-18.26-.77-2.7,6.78-23.77,7.72-29.2.79-4.5,1.44-8.81,1.1-13.42,1.75-1.7,10.3,7.36,12.29,8.91,16.54,12.93,37,23.76,58.39,24.57.04.5-.02,1,0,1.49Z"/>
    <path class="cls-15" d="M311.38,755.88c-14.81-5.38-27.23-18.04-36.46-30.5,1.37-.63.33-2.43.09-3.43-5.82-24.39-8.62-44.5-5.19-69.76,1.16-8.52,2.76-20.31,8.82-26.52-1.2,25.99.36,52.33,7.99,77.21,5.74,18.73,14.62,36.35,24.75,53Z"/>
    <path class="cls-26" d="M437.13,598.15c-3.34,11.73-13.67,22.01-23.13,29.32-13.88,10.73-32.46,19.84-49.79,22.75,16.22-25.79,42.54-46.17,72.92-52.07Z"/>
    <path class="cls-15" d="M329.94,787.4c.01,2.59-1.02,7.61-1.66,10.31-7.25,30.56-39.29,43.37-68.23,41.51-.42-1.34.69-1.35.74-1.49,4.74,2.61,8.93-.79,12.58-3.41,22.22-15.95,23.75-37.12,53.81-45.93,1.24-.36,2.42-.16,2.06-2,.23.26.7.12.7,1.01Z"/>
    <path class="cls-15" d="M273.38,834.32c22.22-15.95,23.75-37.12,53.81-45.93,1.24-.36,2.42-.16,2.06-2-11.41,2.55-22.04,8.74-29.8,17.58-8.29,10.64-15.88,19.69-26.13,28.56-2.77,2.4-7.41,5.71-11.14,4.22l-1.38.98c4.75,2.61,8.94-.79,12.58-3.41Z"/>
    <path class="cls-30" d="M280.05,614.79c-.32,3.41-1.24,7.53-1.4,10.88-.67-.15-1.43-.27-2.06.08-3.17,1.77-6.32,14.33-7.01,18.17-4.84,27.12-3.02,55.34,5.35,81.46-6.32-8.54-11.96-17.52-14.89-27.89-8.47-30.04,2.04-60.59,19.37-85.2,1.32-.18.72,1.67.64,2.5Z"/>
    <path class="cls-30" d="M275.01,721.95c-5.82-24.39-8.62-44.5-5.19-69.76,1.16-8.52,2.76-20.31,8.82-26.52-.67-.16-1.43-.28-2.07.08-3.17,1.77-6.32,14.33-7.01,18.17-4.84,27.12-3.02,55.34,5.35,81.46,1.37-.63.32-2.43.09-3.42Z"/>
    <g class="cls-21">
      <g>
        <path class="cls-14" d="M417.05,816.9c-24.08-1.74-55.7-26.19-67.57-46.65-11.19-19.3-17.64-55.96-14.94-77.9.2-1.63.61-3.69,1.75-4.95,1.78-1.94,13.88-8.76,17.01-10.51,2.65-1.48,22.55-11.85,23.57-11.03l-.74,2.22c7.74-1,15.2-1.79,23.06-1.48-13.17,6.5-37.02,15.67-41.46,31.08-2.73,9.48-2.03,24.08-.85,33.93,4.45,37.31,27.69,67.71,60.17,85.29Z"/>
        <path class="cls-14" d="M443.84,624.93c-.82,1.76-1.12,3.86-2.38,6.18-6.31,11.61-17.97,18.51-26.64,28.05-8-2.72-13.63-1.1-21.43-.22-.81.1-2.54.86-2.38-.52,18.96-8.72,37.86-18.75,52.83-33.49Z"/>
      </g>
    </g>
    <path class="cls-5" d="M512.27,650.97l-8.03-11.68-12.04-22.54c.53-.55,4.51,2.73,5.21,3.33,9.43,8.02,15.17,18.21,14.86,30.89Z"/>
    <path class="cls-6" d="M763.79,1060.95h0c.39,8.54-2.4,10.3-10.61,8.76-5.25-.99-12.28-7.29-16.72-7.87-4.22-.55-19.31,7.9-23.2,10.71-7.07,5.12-12.42,12.16-18.66,18.16-.65-15.19,9.42-27.05,20.08-36.45-25.34-5.64-67.26-3.38-64.73,31.98,0,0,0,0,0,0,0,0,0,0,0,0h0s0,0,0,0c2.94-.04,6.13-1.95,9.3-2.22,11.7-.99,24.35,9.65,35.35,13.74,19.15,7.13,47.35,6.1,65.97-2.46,17.11-7.86,14.49-22.52,3.22-34.36Z"/>
    <path class="cls-12" d="M799.49,1090.72c-2.05,6.18-13.58,12.52-19.34,14.88l.19-1.7c6.45-3.08,13.7-6.67,17.48-12.99l1.67-.19Z"/>
    <path class="cls-19" d="M875.39,1074.64c-.77-.07,0,0-2.35-.27-.21-.02-.42,0-.63-.03-11.98-1.4-23.99-2.99-35.71-5.96l-1.77-.31c-5.44,6.61-6.68,4.67-8.11-2.77-1.99-7.19-9.96-3.82-9.47,2.34.03.04.06.06.08.09,1.18,1.32,2.09,2.85,2.74,4.5,0,0,4.36,6.06,3.88,16.99-.11,2.5-1.13,4.9-1.57,7.36,0,0-9.01-.58-10.52-1.54-.58-.37-.85-.99-.56-2.1,1.49-6.15-.02-13.62-4.43-18.26-4.52-4.75-11.98-8.11-18.07-10.21-2.6-.9-8.8-1.75-10.47-2.74-.68-.39-6.72-10.81-8.72-13.04-.87-.96-6.94-6.91-7.42-7.09-2.94-1.1-18.92-.25-21.58,2.97,7.73,3.6,17.2,10.22,23.07,16.37,11.27,11.84,13.89,26.5-3.22,34.36-18.62,8.56-46.82,9.59-65.97,2.46-11-4.09-23.65-14.73-35.35-13.74-3.18.27-6.37,2.18-9.31,2.22-.49.01-.99.02-1.48.01-1.66-11.38.14-22.47,7.45-31.61,14.55-18.19,41.76-20.77,63.23-16.76-6.62-4.56-11.95-9.03-15.62-16.37-20.27-.32-41.38,7.41-54.3,23.45-3.42,4.25-5.63,9.5-9.31,13.76-10.65,12.32-30.6,20.51-24.94,40.91-36.25.19-73.91-1.47-109.51-8.42-14.46-2.82-33.01-7.18-45.75-14.51-1.79-1.03-6.6-5.3-7.69-5.34-.09,0-.16,1.04-1.78.74-1.74-.33-4.37-1.97-5.94-1.43-1.35.47-1.05,2.59-1.92,3.34-.48.41-1.45-.45-1.52-.42-10.41,4.02-21.06,7.3-31.55,11.08-.96.67-.68,4.2.28,4.94,25.79,5.43,51.77,10.66,77.87,14.39,3.59.52,7.96.36,11.44.84l2.97,1.48-12.65,4.48c-.48-.05-.99.02-1.48,0-3.69-.22-7.47.16-11.16,0-4.18-.19-7.73-.34-11.91-.75-14.5-1.4-30.34-3.89-44.8-6.91-4.41-.92-18.56-3.54-21.65-5.13-1-.51-1.06-.6-1.27-1.71-.37-1.99.17-19.62.83-20.41l28.84-9.84c-.69-10.59,3.75-20.48,12.07-26.99,2.71-2.12,12.48-6.52,13.33-7.88.42-2.25-1.14-1.44-2.57-1.49-10.76-.36-21.3.74-32.06.03-48.19-3.18-75.95-23.25-102.3-62.14l-17.83-29.41c2.12,23.44,8.01,46.72,14.34,69.36,2.77,9.9,6.01,20.43,9.25,30.19,10.02,30.22,22.71,63.18,47.08,84.61-9.46,9-16.1,21.21-19.34,33.86-27.01-10.94-46.69-34.59-60.86-59.3-25.17-43.87-47.91-127.94-25.34-175.35,9.65-20.28,30.92-37.25,52.32-43.66,1.77.17,7.7,7.21,9.72,8.93,21.98,18.72,50.25,34.19,78.61,40.44,6.93,1.53,14.4,2.99,21.45,2.37l-47.62-35.34c16.18,4.06,32.48,7.44,49.12,9.29,8.05,10.8,15.5,22.12,23.82,32.72,2.59,3.3,5.84,7.91,8.53,10.82.89.96,1.86,2.41,3.35,2.22,0-23.81-3.94-49.01-16.36-69.57,4.94.04,11.31,3.83,15.55,6.77,23.15,16.02,32.73,37.19,45.57,60.84.56,1.04.85,2.23,2.12,2.71,7.36-4.95,17.35-10.05,25.54-13.53,7.1-3.01,14.48-5.85,22.08-7.31,1.73-1.91-14.63-18.22-16.72-20.11-9.1-8.22-21.15-16.45-31.89-22.43-22.26-12.39-47.17-17.86-70.3-28.29-1.32-7.58-3.56-14.5-1.24-22.15,3.01-9.91,10.86-9.84,18.72-14.02,26.71-14.21,47.84-46.22,55.08-75.14,3.14-12.53,1.99-26.04,8.84-37.3,8.36-13.76,12.63-17.2,15.09-34.76,12.54-89.38-64.96-167.25-153.58-161.76-51.89,3.21-93.18,43.06-118.51,85.37-37.21,62.16-40.12,122.94,25.51,165.43,4.75,3.07,10.18,5.44,14.53,8.9-23.25,2.79-35.28,17.71-46.73,36.24-6.39,10.33-11.91,24.77-18.88,33.96-4.1,5.41-10.57,8.42-13.26,14.63,13.13,2.37,26.43,3.84,39.84,3.01,10.34-.64,20.53-3.94,30.8-4.92,1.01-.09,1.77-1.07,1.53.79-22.55,16.5-51.05,25.51-68.33,48.5-44.08,58.66-12.97,169.18,13.89,230.66,13.93,31.91,33.79,60.65,51.93,90.18,49.74,11.69,109.16,6.31,156.52-12.93,7.39-3,14.58-6.59,21.64-10.3,7.2-3.79,14.94-7.69,21.06-13.14,1.03-.92,1.9-1.83,2.4-3.16.14-.37.25-.76.49-1.08.38-.5,1.01-.75,1.63-.86,5.67-1,12.05-.05,17.69.85,11.6,1.85,22.73,6.6,34.21,8.95,39.97,8.18,85.07-13.81,116.26-37.38l5.19,1.14,58.93,13,18.24,4.02c17.4-10.79,34.18-22.59,51.25-33.85,24.46-16.12,50.89-34.22,75.6-49.98,1.38-.95,1.61-15.05,1.79-16.69ZM368.12,869.13c-.93-.51-1.42-1.49-1.68-1.63-1.42-.82-3.67-1.24-5.45-2.37-3.21-2.04-21.27-15.88-21.96-18.26-.77-2.7,6.78-23.77,7.72-29.2.79-4.5,1.44-8.81,1.1-13.42,1.75-1.7,10.3,7.36,12.29,8.91,16.54,12.93,37,23.76,58.39,24.57.04.5-.02,1,0,1.49.39,8.76,1.75,20.49,3.19,29.18.87,5.22,1.88,10.71,4.25,15.46-20.59.82-40-4.98-57.85-14.73ZM502.61,703.06c-11.66-14.24-38.93-15.21-42.4,5.95l6.69-2.23c-1.93,22.43,24.47,21.57,22.33-.74,1.08-1.13,10.42,5.22,11,7.22,1.02,3.47-.11,13.57-.69,17.6-5.42,37.62-39.87,89.11-82.49,86.04-24.08-1.74-55.7-26.19-67.57-46.65-11.19-19.3-17.64-55.96-14.94-77.9.2-1.63.61-3.69,1.75-4.95,1.78-1.94,13.88-8.76,17.01-10.51,2.65-1.48,22.55-11.85,23.57-11.03l-.74,2.22c7.74-1,15.2-1.79,23.06-1.48,1.6.06,3.22-.15,4.82.01,8.18.8,14.98,5.27,22.71,7.43,1.42-6.37-6.45-13.03-11.9-14.88-8-2.72-13.63-1.1-21.43-.22-.81.1-2.54.86-2.38-.52,18.96-8.72,37.86-18.75,52.83-33.49,1.48-3.19,3.65-4.76,5.51-7.51,2.82-4.14,5.59-8.34,8.25-12.58,23.18,17.84,41.06,44,44.27,73.66-7.9-7.25-20.01-8.99-29.54-3.87-1.17.63-7.63,5.79-7.64,6.48-.03.87,1.64,1.06,2.49,1.05,2.54-.03,6.38-1.28,9.03-1.42,16.02-.82,33.08,1.78,26.4,22.32ZM364.21,650.22c16.22-25.79,42.54-46.17,72.92-52.07-3.34,11.73-13.67,22.01-23.13,29.32-13.88,10.73-32.46,19.84-49.79,22.75ZM504.24,639.29l-12.04-22.54c.53-.55,4.51,2.73,5.21,3.33,9.43,8.02,15.17,18.21,14.86,30.89l-8.03-11.68ZM341.15,546.8c60.21-38.56,148.02-.79,168.14,65.87-1.21,1.57-1.23-.1-1.69-.6-45.3-49.77-123.67-37.24-162.73,13.6-14.79,19.25-24.72,43.95-27.44,68.18-1.4,12.5-.16,24.98.64,37.48l-3.61-6.43c-23.62-54.23-29.64-142.02,26.69-178.1ZM274.92,725.38c-6.32-8.54-11.96-17.52-14.89-27.89-8.47-30.04,2.04-60.59,19.37-85.2,1.32-.18.72,1.67.64,2.5-.32,3.41-1.24,7.53-1.4,10.88-1.2,25.99.36,52.33,7.99,77.21,5.74,18.73,14.62,36.35,24.75,53-14.81-5.38-27.23-18.04-36.46-30.5ZM260.06,839.22c-.42-1.34.69-1.35.74-1.49,6.45-18.75,21.9-42.11,40.93-49.47,5.54-2.14,23.29-6.59,27.52-1.87.23.26.7.12.7,1.01.01,2.59-1.02,7.61-1.66,10.31-7.25,30.56-39.29,43.37-68.23,41.51ZM636.92,1080.32c1.7,3.66,1.92,7.98,3.94,11.66,5.95,10.83,7.65-.52,9.99-1.52,9.18-3.92,24.3,10.08,32.53,14.06,17.4,8.4,42.48,6.54,61.08,2.96,17.29-3.32,46.86-10.82,38.67-34.62,5.71.61,9.47,2.88,13.44,6.69.52.51,1.48,1.84,1.93,2.59.73,1.22,1.21,2.58,1.37,3.99.18,1.53.12,3.06-.39,4.59-2.05,6.18-13.58,12.52-19.34,14.88-14.53,5.94-32.99,9.55-51.64,11.15-18.24,1.57-36.67,1.23-51.79-.73-1.91-.25-4.36-.61-7.14-1.1-14.16-2.48-36.83-8.21-40.51-18.59-2.43-6.83,2.4-12.51,7.85-16.01ZM645.97,1154.09c-16.66,8.12-50.41,16.5-68.95,18.47-.44,2.04,1,1.47,2.32,1.72,6.86,1.32,13.93-1.66,20.9-1.93l33.32-9.09c-11,8.93-25.23,12.62-38.69,16.37-13.49,3.77-26.11,7.73-40.34,6.12-10.52-1.19-23.15-7.46-34.19-9.71-10.63-2.17-22.86-2.64-33.72-1.98-19.11,1.17-37.64,8.46-56.93,7.43l3.35-18.11c0-.57.12-1.23.37-1.98,1.54-11.61,1.71-23.24,1.49-34.97,1.38.21,2.62.74,4.05.79,13.52.42,27.33.11,40.6-1.37.49-.06.99-.1,1.48-.16,24.96-2.98,39.19-17.2,65.66-13.21,10.72,1.61,21.73,6.18,32.42,8.51,8.32,1.82,16.02,1.9,23.95,3.21.34.06.67.12.98.2,9.32,2.18,5.58,11.58-1.06,14.98-11.4,5.84-23.63-.27-35.23-1.08-4.98-.34-11.49-.1-16.39.81-1.21.22-1.29-.51-1.13,1.45,18.06,5.37,38.11,13.13,56.74,5.78,4.11-1.62,7.84-5.23,11.54-6.32,7.16-2.11,31.08-2.09,33.34,7.25.98,4.02-3.02,5.43-5.88,6.82ZM863.7,1086.84c-3.35,2.02-6.56,3.54-9.89,5.36-4.49,2.46-8.93,4.97-13.39,7.45-1.45.8-3.02,1.42-4.47,2.23-5.72,3.18-11.4,6.49-17.11,9.67-1.73.97-3.46,2-5.21,2.98l-65.68,36.62-1.29.64c-5.41-1.02-12.7-2.03-18.15-3.02-19.67-3.62-39.54-7.22-58.93-11.85-3.59-.85-7.17-1.74-10.72-2.67-8.55-2.24-33.85-8.7-40.34-12.3-2.1-1.16-3.22-4.71-8.02-6.68-6.7-2.75-15.5-2.7-22.7-2.98-.9-.03-2.77.56-2.6-.73,4.81.16,9.69-.25,14.5,0,20.42,1.06,39.37,8.63,59.14,13.04,3.57.8,7.15,1.5,10.74,2.15,8.31,1.5,16.66,2.71,25,4.15,11.28,1.95,22.56,4.25,33.93,5.8,5.39.74,10.8,1.31,16.25,1.59,13.74-6.51,27.08-13.87,40.59-20.79,22.04-11.27,44.23-22.31,66.03-34.04l15.82.57c-.58,1.3-2.3,2.1-3.5,2.81Z"/>
    <path class="cls-8" d="M731.78,1035.65l-7.07-9.66c-4.47-4-9.94-6.27-15.24-8.93,3.32,10.3,12.01,16.45,22.31,18.6Z"/>
    <path class="cls-1" d="M763.04,1027.85c-4.08-3.16-14.91,3.61-17.12,7.8,3.94-1.99,14.14-1.84,16.9-4.66.78-.8,1.35-2.26.22-3.14Z"/>
    <path class="cls-29" d="M739.33,1030.17c1.66-4.79,3.06-11.76-2.32-14.61l.74,17.11c1.37-.23,1.24-1.53,1.58-2.5Z"/>
    <path class="cls-33" d="M405.89,694.13c2.4.56,13.69,8.59,14.87,7.44-6.14-29.18-43.27-23.22-59.52-6.31-.4,1.87,5.02,2.6,6.33,2.59,2.39-.02,12.72-4.07,13.76-2.97-.77,24.22,26.61,23.31,24.56-.74Z"/>
    <path class="cls-24" d="M402.17,762.58c3.95,17.6,23.72,29.71,41.21,22.23,1.67-.72,15.2-10,13.1-11.82-19.1,2.77-37.28-2.21-54.31-10.42Z"/>
    <path class="cls-24" d="M450.54,724.63c-1.15,6.75,2.92,18.05-2.6,23.08-.44.4-3.51,2.22-3.73,2.22h-16c1.35,4.2,9.01,6.9,13.1,7.36,19.56,2.21,18.01-12.1,12.96-25.6-.85-2.27-1.72-5.73-3.73-7.05Z"/>
    <path class="cls-17" d="M751.52,889.08c.28-1.12.65-2.03.26-3.23-1.1-3.38-16.78-3.63-17.65.02-.26,1.08,6.44,20.41,7.37,21.03.43.28,1.65.05,2.22-.31.81-.52,7.33-15.62,7.8-17.51Z"/>
    <path class="cls-31" d="M735.15,915.88c.33-.57.62-1.75.31-2.21-.54-.8-16.48-5.78-18.27-5.96-9.23-.93-3.5,16.98-.51,17.73,1.32.33,17.8-8.39,18.47-9.56Z"/>
    <path class="cls-28" d="M729.6,889.4c-1.01-1.03-1.89-1.29-3.33-1.08-3.24.46-11.69,10.09-9.43,13.07,1.39,1.83,19.74,8.85,20.9,7.76.13-1.61-.58-3.01-1.13-4.44-.82-2.16-6.12-14.4-7-15.31Z"/>
    <path class="cls-25" d="M734.34,921.02c-1.96.92-13.24,8.74-13.63,10.25-.79,3.03,9.47,9.7,12.34,9.75,1.78.03,2.52-2.15,2.88-3.53,1.35-5.18,1.01-11.78,1.81-17.16-1.38-.25-2.22.14-3.4.69Z"/>
    <path class="cls-22" d="M748.91,907.67c3.66-1.46,17.89-3.77,19.77-6.68,1.26-1.96-6.89-12.69-10.32-11.82-2.38.6-10.43,17.17-9.45,18.5Z"/>
  </g>
  <text transform="translate(95.27 1333.43)"><tspan class="cls-4"><tspan x="0" y="0">قاموس للعاملات (مطبخ ووجبات)</tspan><tspan x="888.11" y="0"> </tspan></tspan><tspan class="cls-3"><tspan x="804.51" y="66">250</tspan></tspan></text>
</svg>